# xmcd CD database file
#
# Track frame offsets:
#	150
#	30565
#	52425
#	74587
#	95025
#	127620
#	149092
#	173015
#	190210
#	213000
#	237735
#	261030
#
# Disc length: 3756 seconds
#
# Revision: 0
# Processed by: cddbd v1.5.1PL2 Copyright (c) Steve Scherf et al.
# Submitted via: CDex 1.51
#
DISCID=b80eaa0c
DTITLE=Tomonao Hara - Eijiro Nakagawa - For Musicians Only
DYEAR=1996
DGENRE=Jazz
TTITLE0=Just Do It
TTITLE1=Softli As In A Morning Sunrise
TTITLE2=Joy Spring
TTITLE3=Ornithology
TTITLE4=Body And Soul
TTITLE5=Rhythm -A-Ning
TTITLE6=Scrmble
TTITLE7=I'm Getting Sentimental Over You
TTITLE8=Ooga-Boo-Ga-Loo
TTITLE9=Autumn Leaves
TTITLE10=One Note Samba
TTITLE11=Star Dust
EXTD=YEAR: 1996
EXTT0=
EXTT1=
EXTT2=
EXTT3=
EXTT4=
EXTT5=
EXTT6=
EXTT7=
EXTT8=
EXTT9=
EXTT10=
EXTT11=
PLAYORDER=
